<svg width="30" height="29" viewBox="0 0 30 29" fill="none" xmlns="http://www.w3.org/2000/svg">
<path d="M28.5966 17.3793C27.3183 15.8865 26.7374 14.5929 26.7374 12.395V11.6477C26.7374 8.78369 26.0782 6.93837 24.6451 5.09303C22.4363 2.22723 18.7177 0.5 15.0774 0.5H14.9227C11.3589 0.5 7.75686 2.14792 5.50975 4.8974C3.99833 6.77974 3.26263 8.70438 3.26263 11.6477V12.395C3.26263 14.5929 2.71997 15.8865 1.40336 17.3793C0.434593 18.4791 0.125 19.8926 0.125 21.4225C0.125 22.9541 0.627652 24.4046 1.63642 25.5838C2.95304 26.9973 4.81231 27.8996 6.71156 28.0565C9.46134 28.3701 12.211 28.4883 15.0009 28.4883C17.789 28.4883 20.5388 28.2909 23.2901 28.0565C25.1876 27.8996 27.047 26.9973 28.3635 25.5838C29.3707 24.4046 29.875 22.9541 29.875 21.4225C29.875 19.8926 29.5654 18.4791 28.5966 17.3793Z" fill="#99BAED"/>
</svg>
