<?xml version="1.0" encoding="UTF-8" standalone="no"?>
<svg
   width="30"
   height="29"
   viewBox="0 0 30 29"
   fill="none"
   version="1.1"
   id="svg4"
   sodipodi:docname="actions-notify.svg"
   inkscape:version="1.1 (c68e22c387, 2021-05-23)"
   xmlns:inkscape="http://www.inkscape.org/namespaces/inkscape"
   xmlns:sodipodi="http://sodipodi.sourceforge.net/DTD/sodipodi-0.dtd"
   xmlns="http://www.w3.org/2000/svg"
   xmlns:svg="http://www.w3.org/2000/svg">
  <defs
     id="defs8" />
  <sodipodi:namedview
     id="namedview6"
     pagecolor="#ffffff"
     bordercolor="#666666"
     borderopacity="1.0"
     inkscape:pageshadow="2"
     inkscape:pageopacity="0.0"
     inkscape:pagecheckerboard="0"
     showgrid="false"
     inkscape:zoom="22.413793"
     inkscape:cx="15.013077"
     inkscape:cy="14.5"
     inkscape:window-width="1920"
     inkscape:window-height="1023"
     inkscape:window-x="0"
     inkscape:window-y="0"
     inkscape:window-maximized="1"
     inkscape:current-layer="svg4" />
  <path
     d="M 25.85852,14.323184 C 24.831352,13.061208 24.364575,11.967631 24.364575,10.109581 V 9.4778328 c 0,-2.421163 -0.529696,-3.98115 -1.681252,-5.5411542 C 20.908459,1.5140031 17.920406,0.05384615 14.995271,0.05384615 h -0.124308 c -2.863664,0 -5.7580558,1.39311025 -7.5637038,3.71745175 -1.21449,1.5912829 -1.8056561,3.2183259 -1.8056561,5.7065349 v 0.6317482 c 0,1.85805 -0.4360502,2.951627 -1.4940021,4.213603 -0.7784453,0.929743 -1.0272164,2.124681 -1.0272164,3.41802 0,1.294776 0.4039021,2.520992 1.2144899,3.517858 1.05796,1.194938 2.5519621,1.95772 4.0780897,2.090359 2.2095648,0.26511 4.4190328,0.365033 6.6608358,0.365033 2.240356,0 4.449937,-0.166877 6.660723,-0.365033 1.524722,-0.132639 3.018828,-0.895421 4.076692,-2.090359 0.809328,-0.996866 1.214554,-2.223082 1.214554,-3.517858 0,-1.293339 -0.248777,-2.488277 -1.027249,-3.41802 z"
     fill="#99baed"
     id="path2"
     style="stroke-width:0.824193" />
  <g
     style="fill:none"
     id="g19"
     transform="matrix(0.74177389,0,0,0.67815943,10.848748,24.196124)">
    <path
       opacity="0.4"
       d="m 9.51515,0.649696 c -0.87482,-0.1869 -6.20567,-0.1869 -7.08052,0 C 1.68675,0.822421 0.877991,1.22422 0.877991,2.10552 0.921478,2.94622 1.41368,3.68822 2.09547,4.1588 L 2.09373,4.16055 c 0.88185,0.6874 1.91662,1.12437 3.00022,1.28135 0.5775,0.07927 1.16533,0.07577 1.76365,0 C 7.93945,5.28492 8.97423,4.84795 9.85605,4.16055 L 9.8543,4.1588 c 0.6818,-0.47058 1.1741,-1.21258 1.2175,-2.05328 0,-0.8813 -0.8087,-1.283099 -1.55665,-1.455824 z"
       fill="#aeaeae"
       id="path10" />
  </g>
</svg>
